<svg width="906" height="2034" viewBox="0 0 906 2034" fill="none" xmlns="http://www.w3.org/2000/svg">
<g opacity="0.55" filter="url(#filter0_g_2061_282)">
<path d="M78.263 264.398C68.2546 176.033 101.401 95.1141 142.586 38.9915C151.441 27.2298 163.55 18.2046 177.397 14.6176C191.236 11.0251 205.537 13.0756 217.425 20.4879C229.314 27.9004 238.023 40.1959 241.908 54.8393C245.802 69.4881 244.411 85.1957 239.19 99.2233C221.088 150.406 219.831 195.336 233.066 229.482C270.897 329.185 421.374 410.458 557.29 497.241C606.528 531.764 658.352 558.931 710.104 599.948C811.99 680.702 902.359 811.933 868.914 944.759C854.724 992.278 818.625 1027.89 789.407 1044.26C759.369 1061.64 733.103 1068.19 708.647 1072.69C612.358 1086.89 535.446 1071.57 456.032 1052.25C446.329 1051.1 443.55 1049.97 435.972 1050.42C424.644 1050.74 427.333 1070.93 430.971 1082.43C431.25 1083.31 431.472 1083.98 431.599 1084.34C449.968 1136.29 483.976 1177.53 526.6 1229.81C553.453 1262.87 578.994 1294.09 604.087 1336.44C615.267 1357.95 630.245 1378.29 632.805 1424.6C634.174 1446.85 622.449 1480.38 605.455 1496.87C588.802 1514.29 573.485 1521.26 560.473 1526.92C509.701 1546.01 472.723 1548.03 434.787 1555.44C360.292 1568.09 291.192 1586.03 238.162 1622.13C238.162 1622.13 229.596 1628.42 219.736 1638.64C188.065 1671.47 209.002 1713.95 250.054 1729.32C341.022 1762.86 431.133 1770.83 537.282 1779.21C594.205 1783.46 651.473 1782.67 707.933 1780.21C748.682 1778.4 789.43 1775.72 828.114 1772.77C839.856 1771.87 854.007 1791.62 870.119 1831.91C876.257 1845.92 882.069 1858.58 886.33 1867.67C890.609 1876.95 893.105 1883.11 893.746 1889.7C894.386 1896.29 893.133 1902.93 890.739 1913.06C888.327 1923 885.088 1936.81 881.789 1952.02C871.823 1995.66 855.896 2018.36 841.294 2019.47C793.07 2023.13 746.097 2021.61 700.151 2017.83C636.558 2012.53 574.499 2002.8 512.33 1992.7C395.37 1972.58 280.693 1946.93 163.367 1889C134.662 1873.99 103.809 1856.2 73.3663 1827.8C45.1463 1801.97 2.01141 1746.01 14.1454 1672.88C27.1873 1606.18 63.5758 1575.56 89.3357 1552.12C117.758 1528.17 144.467 1511.88 173.813 1495.57C256.829 1450.13 342.73 1438.12 420.426 1428.85C448.753 1425.45 462.817 1421.97 485.577 1417.17C501.871 1413.72 502.79 1395.8 499.059 1389.38C482.038 1360.35 467.406 1343.01 441.774 1314.03C393.44 1257.89 345.424 1205.45 307.064 1124.2C297.966 1102.83 289.04 1079.77 287.064 1046.06C283.898 1013.99 299.246 963.182 329.751 937.59C389.912 889.347 435.037 895.153 477.18 893.892C478.89 893.922 483.899 894.837 485.592 895.078C551.347 903.754 589.492 907.908 642.724 896.013C643.372 895.812 644.346 895.527 645.558 895.162C668.024 888.398 668.319 866.06 655.351 845.474C625.751 801.704 536.153 751.193 447.511 695.282C315.489 601.454 128.579 518.438 78.263 264.398ZM464.357 1053.42C461.712 1052.99 459.07 1052.62 456.457 1052.3L464.357 1053.42Z" fill="url(#paint0_linear_2061_282)"/>
</g>
<defs>
<filter id="filter0_g_2061_282" x="0.043457" y="0.893066" width="905.869" height="2032.67" filterUnits="userSpaceOnUse" color-interpolation-filters="sRGB">
<feFlood flood-opacity="0" result="BackgroundImageFix"/>
<feBlend mode="normal" in="SourceGraphic" in2="BackgroundImageFix" result="shape"/>
<feTurbulence type="fractalNoise" baseFrequency="0.095238097012042999 0.095238097012042999" numOctaves="3" seed="9505" />
<feDisplacementMap in="shape" scale="24" xChannelSelector="R" yChannelSelector="G" result="displacedImage" width="100%" height="100%" />
<feMerge result="effect1_texture_2061_282">
<feMergeNode in="displacedImage"/>
</feMerge>
</filter>
<linearGradient id="paint0_linear_2061_282" x1="534.302" y1="-148.425" x2="409.53" y2="1990.87" gradientUnits="userSpaceOnUse">
<stop stop-color="#FEFAE0"/>
<stop offset="0.524038" stop-color="#669BBC"/>
<stop offset="1" stop-color="#B2CBCE"/>
</linearGradient>
</defs>
</svg>
