<svg width="64" height="64" viewBox="0 0 64 64" fill="none" xmlns="http://www.w3.org/2000/svg">
<path fill-rule="evenodd" clip-rule="evenodd" d="M26.7695 47.1715L17.9252 52.3643C17.4147 52.6606 17.2699 53.3718 17.6376 53.8371C19.6151 56.3742 22.0238 58.7929 24.8999 61.1728C12.1494 57.3835 4.45139 43.9674 7.60689 30.7245C8.18211 34.4445 9.04494 37.7717 10.2313 40.7944C10.4622 41.3694 11.1237 41.5775 11.6334 41.2815L20.4778 36.0887L28.4233 38.8101L26.7695 47.1715ZM8.97304 53.1929C9.54151 50.7309 7.75789 48.63 5.52157 48.63C3.90933 48.63 2.50386 49.7039 2.07009 51.3129C1.55621 53.219 2.6842 55.2368 4.58683 55.7558C6.49372 56.276 8.44947 55.1336 8.97304 53.1929ZM29.8254 37.2188L20.6935 34.0773C20.4059 33.9845 20.1182 34.0117 19.8666 34.156L11.6334 38.9944C10.3392 35.2873 9.47636 31.0931 9.00885 26.216C8.92256 25.235 7.55113 24.9715 7.13923 25.9259C5.52142 29.7645 4.80239 33.9845 5.0181 38.1387C5.16191 41.163 5.77308 44.0686 6.88757 46.843C3.94851 46.0777 1.02971 47.7953 0.200478 50.8128C-0.776812 54.3691 1.95065 57.86 5.52142 57.86C7.97125 57.86 10.1364 56.1528 10.8064 53.7714C12.6399 56.1115 14.7972 58.11 17.2778 59.7528C20.6933 62.0142 24.6839 63.487 28.7466 63.9857C28.7825 63.9857 28.8185 64 28.8544 64C29.779 64 30.1949 62.7556 29.4296 62.1987C25.5108 59.3587 22.383 56.5058 19.8663 53.4959L28.0994 48.6573C28.3511 48.5116 28.5309 48.2631 28.5668 47.9859L30.4724 38.3502C30.5804 37.863 30.2928 37.3773 29.8254 37.2188ZM61.5714 54.0729C60.595 55.8038 58.4375 56.3919 56.7179 55.3887C54.9922 54.3886 54.4168 52.1801 55.3877 50.4444C56.9549 47.6932 61.0818 48.1628 61.931 51.313C62.1826 52.2458 62.0388 53.2315 61.5714 54.0729ZM39.1011 61.1729C51.9013 57.3687 59.5422 43.9357 56.3943 30.7245C55.8191 34.4445 54.9561 37.7717 53.7697 40.7944C53.5411 41.3642 52.8834 41.5809 52.3676 41.2815L43.5233 36.0887L35.5778 38.8101L37.2315 47.1715L46.0758 52.3643C46.5865 52.6606 46.7313 53.3718 46.3634 53.8371C44.3861 56.3743 41.9774 58.7929 39.1011 61.1729ZM63.8004 50.813C62.9762 47.7999 60.0536 46.0774 57.1133 46.8431C58.2278 44.0689 58.839 41.1631 58.983 38.1388C59.1987 33.9846 58.4437 29.7646 56.8617 25.9261C56.7762 25.7245 56.6277 25.5572 56.4391 25.4502C56.2506 25.3433 56.0326 25.3027 55.8191 25.3347C55.3877 25.4134 55.0641 25.7674 54.9922 26.2161C54.5248 31.0932 53.662 35.2874 52.3676 38.9946L44.1345 34.1561C43.8828 34.0118 43.5952 33.9846 43.3076 34.0775L34.1757 37.2189C33.7083 37.3774 33.4207 37.8632 33.5285 38.3504L35.4341 47.986C35.4701 48.2632 35.6498 48.5118 35.9015 48.6574L44.1346 53.496C41.618 56.506 38.4901 59.3587 34.5713 62.1988C33.806 62.7559 34.2219 64.0001 35.1465 64.0001C35.1824 64.0001 35.2184 63.9858 35.2543 63.9858C39.317 63.4873 43.3077 62.0145 46.7231 59.7529C49.2038 58.1101 51.361 56.0973 53.1945 53.7587C54.056 56.7369 57.0359 58.4734 59.9175 57.6631C62.8581 56.836 64.6154 53.7655 63.8004 50.813ZM38.6338 15.7102C38.8495 15.5259 39.1371 15.4345 39.4247 15.4875C42.5526 15.9604 45.8242 16.8545 49.2757 18.1959C39.6272 8.84025 24.3586 8.85488 14.7254 18.1959C18.1769 16.8545 21.4486 15.9604 24.6123 15.4875C25.1435 15.392 25.6908 15.8141 25.6908 16.4603V26.8588L32.0184 32.473L38.3102 26.8588V16.4603C38.3102 16.1702 38.4181 15.8945 38.6338 15.7102ZM28.4233 5.58761C28.4233 3.58894 30.0411 1.9718 32.0186 1.9718C33.9599 1.9718 35.5779 3.58894 35.5779 5.58761C35.5779 7.58628 33.9601 9.21626 32.0186 9.21626C30.0411 9.21626 28.4233 7.58628 28.4233 5.58761ZM40.2516 27.3057V17.6174C44.0626 18.3132 48.0533 19.6547 52.4395 21.6804C53.3615 22.1064 54.1972 20.982 53.59 20.1944C51.1451 16.8543 47.9095 14.0929 44.2783 12.2004C41.6177 10.833 38.8135 9.92601 35.9373 9.50464C36.908 8.49306 37.5191 7.11325 37.5191 5.58746C37.5191 2.51184 35.0385 0.000152588 32.0184 0.000152588C28.9624 0.000152588 26.4818 2.51184 26.4818 5.58746C26.4818 7.11325 27.0929 8.49306 28.0636 9.50464C25.1514 9.92601 22.3832 10.833 19.7226 12.2004C16.0914 14.0929 12.8558 16.8543 10.4109 20.1944C9.80638 20.9785 10.6268 22.1118 11.5973 21.6804C15.9476 19.6547 19.9383 18.3132 23.7853 17.6174V27.3057C23.7853 27.5814 23.8931 27.8588 24.1088 28.043L31.3712 34.5372C31.7166 34.8426 32.2623 34.8619 32.6295 34.5372L39.8918 28.043C40.1078 27.8588 40.2516 27.5816 40.2516 27.3057Z" fill="#669BBC"/>
</svg>
