<svg width="52" height="62" viewBox="0 0 52 62" fill="none" xmlns="http://www.w3.org/2000/svg">
<path d="M27.1953 0.500488C28.6586 0.500488 29.8281 1.68886 29.8281 3.14502V5.77393H46.6367C49.0813 5.77393 51.0609 7.7554 51.0742 10.1968V51.8013C51.0742 54.2454 49.0925 56.2271 46.6484 56.2271H29.8398V58.856C29.8398 59.0771 29.8105 59.2777 29.7705 59.4644L29.7686 59.4741C29.4554 60.8081 28.1753 61.65 26.8535 61.4771L26.5889 61.4282L3.3291 55.9438C1.37923 55.4929 0 53.7562 0 51.7544V10.2583C0 8.25838 1.36482 6.52129 3.31348 6.05713H3.31543L26.5771 0.572754L26.5869 0.569824C26.7751 0.529512 26.9871 0.500489 27.1953 0.500488ZM27.1094 2.67334L27.0977 2.67725L27.0752 2.68213L3.81348 8.1665C2.84409 8.39467 2.16246 9.25869 2.17188 10.2534V51.7476C2.16246 52.7423 2.84409 53.6063 3.81348 53.8345L27.0488 59.312C27.1178 59.3235 27.1492 59.3286 27.1836 59.3286C27.4115 59.3286 27.5985 59.1708 27.6445 58.9575V3.13428C27.65 2.88189 27.4487 2.67236 27.1836 2.67236C27.1653 2.67236 27.1517 2.67211 27.1387 2.67236C27.1262 2.67261 27.116 2.67283 27.1094 2.67334ZM30.0742 10.8013H43.6016C44.9441 10.8013 46.0352 11.8923 46.0352 13.2349V48.7661C46.0352 50.1087 44.9441 51.1997 43.6016 51.1997H30.0742V54.0552H46.6367C47.884 54.0552 48.8906 53.0486 48.8906 51.8013V10.1997C48.8906 8.95241 47.884 7.9458 46.6367 7.9458H30.0742V10.8013ZM29.8281 49.0278H43.6133C43.759 49.0278 43.875 48.9118 43.875 48.7661V13.2231C43.875 13.0774 43.759 12.9614 43.6133 12.9614H29.8281V49.0278Z" fill="#669BBC"/>
<path d="M19.9312 27.0005C22.3534 27.0005 24.3312 28.9605 24.3312 31.4005C24.3312 33.8227 22.3712 35.8005 19.9312 35.8005C17.5091 35.8005 15.5312 33.8405 15.5312 31.4005C15.5312 28.9783 17.4913 27.0005 19.9312 27.0005ZM19.9312 28.8492C18.6141 28.8492 17.525 29.8566 17.3939 31.1401L17.38 31.4005C17.38 32.8055 18.5262 33.9517 19.9312 33.9517C21.3363 33.9517 22.4825 32.8055 22.4825 31.4005C22.4825 29.9954 21.3363 28.8492 19.9312 28.8492Z" fill="#669BBC"/>
</svg>
